<svg width="576" height="384" viewBox="0 0 576 384" fill="none" xmlns="http://www.w3.org/2000/svg">
<path d="M512 384H64C28.65 384 0 355.35 0 320V64C0 28.65 28.65 0 64 0H512C547.35 0 576 28.65 576 64V320C576 355.3 547.3 384 512 384ZM128 116V76C128 69.4 122.6 64 116 64H76C69.38 64 64 69.4 64 76V116C64 122.6 69.38 128 76 128H116C122.6 128 128 122.6 128 116ZM224 116V76C224 69.4 218.6 64 212 64H172C165.4 64 160 69.4 160 76V116C160 122.6 165.4 128 172 128H212C218.6 128 224 122.6 224 116ZM320 116V76C320 69.4 314.6 64 308 64H268C261.4 64 256 69.4 256 76V116C256 122.6 261.4 128 268 128H308C314.6 128 320 122.6 320 116ZM416 116V76C416 69.4 410.6 64 404 64H364C357.4 64 352 69.4 352 76V116C352 122.6 357.4 128 364 128H404C410.6 128 416 122.6 416 116ZM512 116V76C512 69.4 506.6 64 500 64H460C453.4 64 448 69.4 448 76V116C448 122.6 453.4 128 460 128H500C506.6 128 512 122.6 512 116ZM128 212V172C128 165.4 122.6 160 116 160H76C69.38 160 64 165.4 64 172V212C64 218.6 69.38 224 76 224H116C122.6 224 128 218.6 128 212ZM224 212V172C224 165.4 218.6 160 212 160H172C165.4 160 160 165.4 160 172V212C160 218.6 165.4 224 172 224H212C218.6 224 224 218.6 224 212ZM320 212V172C320 165.4 314.6 160 308 160H268C261.4 160 256 165.4 256 172V212C256 218.6 261.4 224 268 224H308C314.6 224 320 218.6 320 212ZM416 212V172C416 165.4 410.6 160 404 160H364C357.4 160 352 165.4 352 172V212C352 218.6 357.4 224 364 224H404C410.6 224 416 218.6 416 212ZM512 212V172C512 165.4 506.6 160 500 160H460C453.4 160 448 165.4 448 172V212C448 218.6 453.4 224 460 224H500C506.6 224 512 218.6 512 212ZM128 308V268C128 261.4 122.6 256 116 256H76C69.38 256 64 261.4 64 268V308C64 314.6 69.38 320 76 320H116C122.6 320 128 314.6 128 308ZM416 308V268C416 261.4 410.6 256 404 256H172C165.4 256 160 261.4 160 268V308C160 314.6 165.4 320 172 320H404C410.6 320 416 314.6 416 308ZM512 308V268C512 261.4 506.6 256 500 256H460C453.4 256 448 261.4 448 268V308C448 314.6 453.4 320 460 320H500C506.6 320 512 314.6 512 308Z" fill="#F1F3F9"/>
</svg>
